{
    "asset" : {
        "generator" : "Khronos glTF Blender I/O v1.3.48",
        "version" : "2.0"
    },
    "extensionsUsed" : [
        "KHR_texture_transform"
    ],
    "extensionsRequired" : [
        "KHR_texture_transform"
    ],
    "scene" : 0,
    "scenes" : [
        {
            "name" : "Scene",
            "nodes" : [
                0
            ]
        }
    ],
    "nodes" : [
        {
            "mesh" : 0,
            "name" : "gatevulture",
            "rotation" : [
                0,
                -0.4904589354991913,
                -0.8714644312858582,
                2.987322602621134e-07
            ],
            "scale" : [
                0.007153368089348078,
                0.007153373211622238,
                0.007153373211622238
            ],
            "translation" : [
                0,
                -6.909263610839844,
                -216.69801330566406
            ]
        }
    ],
    "materials" : [
        {
            "doubleSided" : true,
            "emissiveFactor" : [
                0,
                0,
                0
            ],
            "name" : "rocktex",
            "normalTexture" : {
                "extensions" : {
                    "KHR_texture_transform" : {
                        "offset" : [
                            0,
                            -0.5
                        ],
                        "scale" : [
                            1.5,
                            1.5
                        ]
                    }
                },
                "index" : 0,
                "texCoord" : 0
            },
            "pbrMetallicRoughness" : {
                "baseColorTexture" : {
                    "extensions" : {
                        "KHR_texture_transform" : {
                            "offset" : [
                                0,
                                -0.5
                            ],
                            "scale" : [
                                1.5,
                                1.5
                            ]
                        }
                    },
                    "index" : 1,
                    "texCoord" : 0
                },
                "metallicFactor" : 0,
                "roughnessFactor" : 1
            }
        }
    ],
    "meshes" : [
        {
            "name" : "Cube.011",
            "primitives" : [
                {
                    "attributes" : {
                        "POSITION" : 0,
                        "NORMAL" : 1,
                        "TEXCOORD_0" : 2
                    },
                    "indices" : 3,
                    "material" : 0
                }
            ]
        }
    ],
    "textures" : [
        {
            "sampler" : 0,
            "source" : 0
        },
        {
            "sampler" : 1,
            "source" : 1
        }
    ],
    "images" : [
        {
            "bufferView" : 4,
            "mimeType" : "image/png",
            "name" : "rocknormal"
        },
        {
            "bufferView" : 5,
            "mimeType" : "image/png",
            "name" : "rock"
        }
    ],
    "accessors" : [
        {
            "bufferView" : 0,
            "componentType" : 5126,
            "count" : 369,
            "max" : [
                841.65234375,
                1522.09130859375,
                138.3357391357422
            ],
            "min" : [
                -841.6492919921875,
                -554.7635498046875,
                -2191.09228515625
            ],
            "type" : "VEC3"
        },
        {
            "bufferView" : 1,
            "componentType" : 5126,
            "count" : 369,
            "type" : "VEC3"
        },
        {
            "bufferView" : 2,
            "componentType" : 5126,
            "count" : 369,
            "type" : "VEC2"
        },
        {
            "bufferView" : 3,
            "componentType" : 5123,
            "count" : 720,
            "type" : "SCALAR"
        }
    ],
    "bufferViews" : [
        {
            "buffer" : 0,
            "byteLength" : 4428,
            "byteOffset" : 0
        },
        {
            "buffer" : 0,
            "byteLength" : 4428,
            "byteOffset" : 4428
        },
        {
            "buffer" : 0,
            "byteLength" : 2952,
            "byteOffset" : 8856
        },
        {
            "buffer" : 0,
            "byteLength" : 1440,
            "byteOffset" : 11808
        },
        {
            "buffer" : 0,
            "byteLength" : 17537,
            "byteOffset" : 13248
        },
        {
            "buffer" : 0,
            "byteLength" : 31980,
            "byteOffset" : 30788
        }
    ],
    "samplers" : [
        {
            "magFilter" : 9728,
            "minFilter" : 9984
        },
        {
            "magFilter" : 9728,
            "minFilter" : 9984
        }
    ],
    "buffers" : [
        {
            "byteLength" : 62768,
            "uri" : "data:application/octet-stream;base64,"
        }
    ]
}
