{
    "asset" : {
        "generator" : "Khronos glTF Blender I/O v1.3.48",
        "version" : "2.0"
    },
    "extensionsUsed" : [
        "KHR_texture_transform"
    ],
    "extensionsRequired" : [
        "KHR_texture_transform"
    ],
    "scene" : 0,
    "scenes" : [
        {
            "name" : "Scene",
            "nodes" : [
                0,
                1
            ]
        }
    ],
    "nodes" : [
        {
            "mesh" : 0,
            "name" : "collision",
            "scale" : [
                1,
                1,
                0.75
            ],
            "translation" : [
                -334.2690734863281,
                89.09129333496094,
                361.0676574707031
            ]
        },
        {
            "mesh" : 1,
            "name" : "vis",
            "scale" : [
                1,
                1,
                0.75
            ],
            "translation" : [
                -334.2690734863281,
                89.09129333496094,
                361.0676574707031
            ]
        }
    ],
    "materials" : [
        {
            "doubleSided" : true,
            "emissiveFactor" : [
                0,
                0,
                0
            ],
            "name" : "Material.001",
            "pbrMetallicRoughness" : {
                "baseColorFactor" : [
                    0.027656255289912224,
                    0.027656255289912224,
                    0.027656255289912224,
                    1
                ],
                "metallicFactor" : 0,
                "roughnessFactor" : 0.7363636493682861
            }
        },
        {
            "doubleSided" : true,
            "emissiveFactor" : [
                0,
                0,
                0
            ],
            "name" : "stairtex",
            "pbrMetallicRoughness" : {
                "baseColorTexture" : {
                    "extensions" : {
                        "KHR_texture_transform" : {
                            "offset" : [
                                0,
                                -3
                            ],
                            "scale" : [
                                4,
                                4
                            ]
                        }
                    },
                    "index" : 0,
                    "texCoord" : 0
                },
                "metallicFactor" : 0,
                "roughnessFactor" : 0.5
            }
        }
    ],
    "meshes" : [
        {
            "name" : "Cube.005",
            "primitives" : [
                {
                    "attributes" : {
                        "POSITION" : 0,
                        "NORMAL" : 1,
                        "TEXCOORD_0" : 2
                    },
                    "indices" : 3,
                    "material" : 0
                }
            ]
        },
        {
            "name" : "Cube.002",
            "primitives" : [
                {
                    "attributes" : {
                        "POSITION" : 4,
                        "NORMAL" : 5,
                        "TEXCOORD_0" : 6,
                        "TEXCOORD_1" : 7
                    },
                    "indices" : 8,
                    "material" : 1
                }
            ]
        }
    ],
    "textures" : [
        {
            "sampler" : 0,
            "source" : 0
        }
    ],
    "images" : [
        {
            "bufferView" : 9,
            "mimeType" : "image/png",
            "name" : "stairtex"
        }
    ],
    "accessors" : [
        {
            "bufferView" : 0,
            "componentType" : 5126,
            "count" : 1450,
            "max" : [
                2.7042031288146973,
                70.52395629882812,
                4.286995887756348
            ],
            "min" : [
                -2.7005138397216797,
                -0.5222834944725037,
                -4.316474914550781
            ],
            "type" : "VEC3"
        },
        {
            "bufferView" : 1,
            "componentType" : 5126,
            "count" : 1450,
            "type" : "VEC3"
        },
        {
            "bufferView" : 2,
            "componentType" : 5126,
            "count" : 1450,
            "type" : "VEC2"
        },
        {
            "bufferView" : 3,
            "componentType" : 5123,
            "count" : 2364,
            "type" : "SCALAR"
        },
        {
            "bufferView" : 4,
            "componentType" : 5126,
            "count" : 4982,
            "max" : [
                2.7042031288146973,
                70.52166748046875,
                4.286995887756348
            ],
            "min" : [
                -2.700514316558838,
                0.02620697021484375,
                -4.316474914550781
            ],
            "type" : "VEC3"
        },
        {
            "bufferView" : 5,
            "componentType" : 5126,
            "count" : 4982,
            "type" : "VEC3"
        },
        {
            "bufferView" : 6,
            "componentType" : 5126,
            "count" : 4982,
            "type" : "VEC2"
        },
        {
            "bufferView" : 7,
            "componentType" : 5126,
            "count" : 4982,
            "type" : "VEC2"
        },
        {
            "bufferView" : 8,
            "componentType" : 5123,
            "count" : 7056,
            "type" : "SCALAR"
        }
    ],
    "bufferViews" : [
        {
            "buffer" : 0,
            "byteLength" : 17400,
            "byteOffset" : 0
        },
        {
            "buffer" : 0,
            "byteLength" : 17400,
            "byteOffset" : 17400
        },
        {
            "buffer" : 0,
            "byteLength" : 11600,
            "byteOffset" : 34800
        },
        {
            "buffer" : 0,
            "byteLength" : 4728,
            "byteOffset" : 46400
        },
        {
            "buffer" : 0,
            "byteLength" : 59784,
            "byteOffset" : 51128
        },
        {
            "buffer" : 0,
            "byteLength" : 59784,
            "byteOffset" : 110912
        },
        {
            "buffer" : 0,
            "byteLength" : 39856,
            "byteOffset" : 170696
        },
        {
            "buffer" : 0,
            "byteLength" : 39856,
            "byteOffset" : 210552
        },
        {
            "buffer" : 0,
            "byteLength" : 14112,
            "byteOffset" : 250408
        },
        {
            "buffer" : 0,
            "byteLength" : 37598,
            "byteOffset" : 264520
        }
    ],
    "samplers" : [
        {
            "magFilter" : 9728,
            "minFilter" : 9984
        }
    ],
    "buffers" : [
        {
            "byteLength" : 302120,
            "uri" : "data:application/octet-stream;base64,"
        }
    ]
}
